# xmcd
#
# Track frame offsets: 
#        150
#        21102
#        37786
#        52503
#        66556
#        85361
#        99302
#        114474
#        128237
#        142148
#        156312
#        175326
#        191133
#        205515
#        222272
#        237553
#
# Disc length: 3339 seconds
#
# Revision: 2
# Processed by: cddbd v1.5.2PL0 Copyright (c) Steve Scherf et al.
# Submitted via: ExactAudioCopy v0.95b4
#
DISCID=e20d0910
DTITLE=Various Artist - Kuschel Party CD 2
DYEAR=1900
DGENRE=Ballad
TTITLE0=Andreas Martin  - Ich brauch' Deine Liebe
TTITLE1=Roy Black  - Ganz in weiß
TTITLE2=Bata Illic  - Dich erkenn ich mit verbund'nen Augen
TTITLE3=Christian Anders  - Ich lass Dich nicht geh'n
TTITLE4=Kim Merz  - Der Typ neben Ihr
TTITLE5=Dennie Christian  - Baby,I Love You
TTITLE6=Mel Jersey  - Ich bin kein Engel
TTITLE7=Rendezvous  - Du bist ein Stern für mich
TTITLE8=Phil and John  - Du oder keine
TTITLE9=Mandy Von Den Bambis  - Melancholie
TTITLE10=Peter Orloff  - Ich liebe Dich
TTITLE11=Marabell  - Wo ist mein Herz
TTITLE12=Trio Melody  - Sha la la , lass uns Träumen
TTITLE13=Ulli Martin  - Ich träume mit offenen Augen von Dir
TTITLE14=Jürgen Marcus  - Nur Du ( El Condor Pasa )
TTITLE15=Peter Kraus  - Wenn Teenager träumen
EXTD=
EXTT0=
EXTT1=
EXTT2=
EXTT3=
EXTT4=
EXTT5=
EXTT6=
EXTT7=
EXTT8=
EXTT9=
EXTT10=
EXTT11=
EXTT12=
EXTT13=
EXTT14=
EXTT15=
PLAYORDER=
